<svg xmlns="http://www.w3.org/2000/svg" style="display:none">
  <!-- Lucide icons (MIT). 24x24 viewBox, stroke=2, currentColor. -->
  <symbol id="icon-cable" viewBox="0 0 24 24" fill="none" stroke="currentColor" stroke-width="2" stroke-linecap="round" stroke-linejoin="round">
    <path d="M4 9a2 2 0 0 1 2-2h3a2 2 0 0 1 2 2v6a2 2 0 0 0 2 2h3a2 2 0 0 1 2 2"/>
    <path d="M5 7v10"/><path d="M19 7v10"/>
    <path d="M3 5h4"/><path d="M17 19h4"/>
  </symbol>
  <symbol id="icon-shield" viewBox="0 0 24 24" fill="none" stroke="currentColor" stroke-width="2" stroke-linecap="round" stroke-linejoin="round">
    <path d="M20 13c0 5-3.5 7.5-8 9-4.5-1.5-8-4-8-9V5l8-3 8 3z"/>
    <path d="m9 12 2 2 4-4"/>
  </symbol>
  <symbol id="icon-network" viewBox="0 0 24 24" fill="none" stroke="currentColor" stroke-width="2" stroke-linecap="round" stroke-linejoin="round">
    <rect x="9" y="3" width="6" height="6"/>
    <rect x="3" y="15" width="6" height="6"/>
    <rect x="15" y="15" width="6" height="6"/>
    <path d="M12 9v3M6 18v-3a3 3 0 0 1 3-3h6a3 3 0 0 1 3 3v3"/>
  </symbol>
  <symbol id="icon-home" viewBox="0 0 24 24" fill="none" stroke="currentColor" stroke-width="2" stroke-linecap="round" stroke-linejoin="round">
    <path d="m3 9 9-7 9 7v11a2 2 0 0 1-2 2H5a2 2 0 0 1-2-2z"/>
    <polyline points="9 22 9 12 15 12 15 22"/>
  </symbol>
  <symbol id="icon-heart-pulse" viewBox="0 0 24 24" fill="none" stroke="currentColor" stroke-width="2" stroke-linecap="round" stroke-linejoin="round">
    <path d="M19 14c1.49-1.46 3-3.21 3-5.5A5.5 5.5 0 0 0 16.5 3c-1.76 0-3 .5-4.5 2-1.5-1.5-2.74-2-4.5-2A5.5 5.5 0 0 0 2 8.5c0 2.3 1.5 4.05 3 5.5l7 7Z"/>
    <path d="M3.22 12H9.5l.5-1 2 4.5 2-7 1.5 3.5h5.27"/>
  </symbol>
  <symbol id="icon-graduation" viewBox="0 0 24 24" fill="none" stroke="currentColor" stroke-width="2" stroke-linecap="round" stroke-linejoin="round">
    <path d="M22 10v6M2 10l10-5 10 5-10 5z"/>
    <path d="M6 12v5c3 3 9 3 12 0v-5"/>
  </symbol>
  <symbol id="icon-landmark" viewBox="0 0 24 24" fill="none" stroke="currentColor" stroke-width="2" stroke-linecap="round" stroke-linejoin="round">
    <line x1="3" y1="22" x2="21" y2="22"/>
    <line x1="6" y1="18" x2="6" y2="11"/>
    <line x1="10" y1="18" x2="10" y2="11"/>
    <line x1="14" y1="18" x2="14" y2="11"/>
    <line x1="18" y1="18" x2="18" y2="11"/>
    <polygon points="12 2 20 7 4 7"/>
  </symbol>
  <symbol id="icon-stethoscope" viewBox="0 0 24 24" fill="none" stroke="currentColor" stroke-width="2" stroke-linecap="round" stroke-linejoin="round">
    <path d="M11 2v2"/><path d="M5 2v2"/>
    <path d="M5 3H4a2 2 0 0 0-2 2v4a6 6 0 0 0 12 0V5a2 2 0 0 0-2-2h-1"/>
    <path d="M8 15a6 6 0 0 0 12 0v-3"/>
    <circle cx="20" cy="10" r="2"/>
  </symbol>
  <symbol id="icon-utensils" viewBox="0 0 24 24" fill="none" stroke="currentColor" stroke-width="2" stroke-linecap="round" stroke-linejoin="round">
    <path d="m16 2-2.3 2.3a3 3 0 0 0 0 4.2l1.8 1.8a3 3 0 0 0 4.2 0L22 8"/>
    <path d="M15 15 3.3 3.3a4.2 4.2 0 0 0 0 6L11 17l1.8 1.8a3 3 0 0 0 4.2 0L20 15"/>
    <path d="m2 22 6-6"/><path d="m17.5 17.5 4.5 4.5"/>
  </symbol>
  <symbol id="icon-building" viewBox="0 0 24 24" fill="none" stroke="currentColor" stroke-width="2" stroke-linecap="round" stroke-linejoin="round">
    <path d="M6 22V4a2 2 0 0 1 2-2h8a2 2 0 0 1 2 2v18Z"/>
    <path d="M6 12H4a2 2 0 0 0-2 2v6a2 2 0 0 0 2 2h2"/>
    <path d="M18 9h2a2 2 0 0 1 2 2v9a2 2 0 0 1-2 2h-2"/>
    <path d="M10 6h4"/><path d="M10 10h4"/><path d="M10 14h4"/><path d="M10 18h4"/>
  </symbol>
  <symbol id="icon-award" viewBox="0 0 24 24" fill="none" stroke="currentColor" stroke-width="2" stroke-linecap="round" stroke-linejoin="round">
    <circle cx="12" cy="8" r="6"/>
    <path d="M15.477 12.89 17 22l-5-3-5 3 1.523-9.11"/>
  </symbol>
  <symbol id="icon-ruler" viewBox="0 0 24 24" fill="none" stroke="currentColor" stroke-width="2" stroke-linecap="round" stroke-linejoin="round">
    <path d="M21.3 8.7 8.7 21.3a2.4 2.4 0 0 1-3.4 0l-2.6-2.6a2.4 2.4 0 0 1 0-3.4L15.3 2.7a2.4 2.4 0 0 1 3.4 0l2.6 2.6a2.4 2.4 0 0 1 0 3.4Z"/>
    <path d="m7.5 10.5 2 2"/><path d="m10.5 7.5 2 2"/>
    <path d="m13.5 4.5 2 2"/><path d="m4.5 13.5 2 2"/>
  </symbol>
  <symbol id="icon-wrench" viewBox="0 0 24 24" fill="none" stroke="currentColor" stroke-width="2" stroke-linecap="round" stroke-linejoin="round">
    <path d="M14.7 6.3a1 1 0 0 0 0 1.4l1.6 1.6a1 1 0 0 0 1.4 0l3.77-3.77a6 6 0 0 1-7.94 7.94l-6.91 6.91a2.12 2.12 0 0 1-3-3l6.91-6.91a6 6 0 0 1 7.94-7.94l-3.76 3.76z"/>
  </symbol>
  <symbol id="icon-phone" viewBox="0 0 24 24" fill="none" stroke="currentColor" stroke-width="2" stroke-linecap="round" stroke-linejoin="round">
    <path d="M22 16.92v3a2 2 0 0 1-2.18 2 19.79 19.79 0 0 1-8.63-3.07 19.5 19.5 0 0 1-6-6 19.79 19.79 0 0 1-3.07-8.67A2 2 0 0 1 4.11 2h3a2 2 0 0 1 2 1.72 12.84 12.84 0 0 0 .7 2.81 2 2 0 0 1-.45 2.11L8.09 9.91a16 16 0 0 0 6 6l1.27-1.27a2 2 0 0 1 2.11-.45 12.84 12.84 0 0 0 2.81.7A2 2 0 0 1 22 16.92z"/>
  </symbol>
  <symbol id="icon-zap" viewBox="0 0 24 24" fill="none" stroke="currentColor" stroke-width="2" stroke-linecap="round" stroke-linejoin="round">
    <polygon points="13 2 3 14 12 14 11 22 21 10 12 10 13 2"/>
  </symbol>
  <symbol id="icon-user" viewBox="0 0 24 24" fill="none" stroke="currentColor" stroke-width="2" stroke-linecap="round" stroke-linejoin="round">
    <path d="M19 21v-2a4 4 0 0 0-4-4H9a4 4 0 0 0-4 4v2"/>
    <circle cx="12" cy="7" r="4"/>
  </symbol>
  <symbol id="icon-clipboard" viewBox="0 0 24 24" fill="none" stroke="currentColor" stroke-width="2" stroke-linecap="round" stroke-linejoin="round">
    <rect x="8" y="2" width="8" height="4" rx="1" ry="1"/>
    <path d="M16 4h2a2 2 0 0 1 2 2v14a2 2 0 0 1-2 2H6a2 2 0 0 1-2-2V6a2 2 0 0 1 2-2h2"/>
    <path d="m9 14 2 2 4-4"/>
  </symbol>
  <symbol id="icon-scale" viewBox="0 0 24 24" fill="none" stroke="currentColor" stroke-width="2" stroke-linecap="round" stroke-linejoin="round">
    <path d="m16 16 3-8 3 8c-.87.65-1.92 1-3 1s-2.13-.35-3-1Z"/>
    <path d="m2 16 3-8 3 8c-.87.65-1.92 1-3 1s-2.13-.35-3-1Z"/>
    <path d="M7 21h10"/><path d="M12 3v18"/>
    <path d="M3 7h2c2 0 5-1 7-2 2 1 5 2 7 2h2"/>
  </symbol>
  <symbol id="icon-timer" viewBox="0 0 24 24" fill="none" stroke="currentColor" stroke-width="2" stroke-linecap="round" stroke-linejoin="round">
    <line x1="10" y1="2" x2="14" y2="2"/>
    <line x1="12" y1="14" x2="15" y2="11"/>
    <circle cx="12" cy="14" r="8"/>
  </symbol>
  <symbol id="icon-mail" viewBox="0 0 24 24" fill="none" stroke="currentColor" stroke-width="2" stroke-linecap="round" stroke-linejoin="round">
    <rect x="2" y="4" width="20" height="16" rx="2"/>
    <path d="m22 7-10 5L2 7"/>
  </symbol>
  <symbol id="icon-pin" viewBox="0 0 24 24" fill="none" stroke="currentColor" stroke-width="2" stroke-linecap="round" stroke-linejoin="round">
    <path d="M20 10c0 7-8 13-8 13s-8-6-8-13a8 8 0 0 1 16 0Z"/>
    <circle cx="12" cy="10" r="3"/>
  </symbol>
  <symbol id="icon-truck" viewBox="0 0 24 24" fill="none" stroke="currentColor" stroke-width="2" stroke-linecap="round" stroke-linejoin="round">
    <path d="M14 18V6a2 2 0 0 0-2-2H4a2 2 0 0 0-2 2v11a1 1 0 0 0 1 1h2"/>
    <path d="M15 18H9"/>
    <path d="M19 18h2a1 1 0 0 0 1-1v-3.65a1 1 0 0 0-.22-.624l-3.48-4.35A1 1 0 0 0 17.52 8H14"/>
    <circle cx="17" cy="18" r="2"/><circle cx="6" cy="18" r="2"/>
  </symbol>
  <symbol id="icon-server" viewBox="0 0 24 24" fill="none" stroke="currentColor" stroke-width="2" stroke-linecap="round" stroke-linejoin="round">
    <rect x="2" y="2" width="20" height="8" rx="2"/>
    <rect x="2" y="14" width="20" height="8" rx="2"/>
    <line x1="6" y1="6" x2="6.01" y2="6"/>
    <line x1="6" y1="18" x2="6.01" y2="18"/>
  </symbol>
  <symbol id="icon-wifi" viewBox="0 0 24 24" fill="none" stroke="currentColor" stroke-width="2" stroke-linecap="round" stroke-linejoin="round">
    <path d="M5 12.55a11 11 0 0 1 14.08 0"/>
    <path d="M1.42 9a16 16 0 0 1 21.16 0"/>
    <path d="M8.53 16.11a6 6 0 0 1 6.95 0"/>
    <line x1="12" y1="20" x2="12.01" y2="20"/>
  </symbol>
  <symbol id="icon-globe" viewBox="0 0 24 24" fill="none" stroke="currentColor" stroke-width="2" stroke-linecap="round" stroke-linejoin="round">
    <circle cx="12" cy="12" r="10"/>
    <line x1="2" y1="12" x2="22" y2="12"/>
    <path d="M12 2a15.3 15.3 0 0 1 4 10 15.3 15.3 0 0 1-4 10 15.3 15.3 0 0 1-4-10 15.3 15.3 0 0 1 4-10z"/>
  </symbol>
  <symbol id="icon-bar-chart" viewBox="0 0 24 24" fill="none" stroke="currentColor" stroke-width="2" stroke-linecap="round" stroke-linejoin="round">
    <line x1="12" y1="20" x2="12" y2="10"/>
    <line x1="18" y1="20" x2="18" y2="4"/>
    <line x1="6" y1="20" x2="6" y2="16"/>
  </symbol>
</svg>
